<?xml version="1.0" standalone="no"?>
<!DOCTYPE svg PUBLIC "-//W3C//DTD SVG 20010904//EN"
 "http://www.w3.org/TR/2001/REC-SVG-20010904/DTD/svg10.dtd">
<svg version="1.0" xmlns="http://www.w3.org/2000/svg"
 width="1080.000000pt" height="1080.000000pt" viewBox="0 0 1080.000000 1080.000000"
 preserveAspectRatio="xMidYMid meet">

<g transform="translate(0.000000,1080.000000) scale(0.100000,-0.100000)"
fill="#000000" stroke="none">
<path d="M5080 10289 c-986 -78 -1854 -397 -2595 -954 -380 -286 -677 -577
-961 -941 -457 -587 -773 -1274 -923 -2006 -26 -126 -81 -488 -81 -533 0 -11
12 -15 43 -16 34 0 38 -2 22 -10 -17 -8 -17 -9 5 -4 14 2 73 8 132 11 l107 7
6 51 c75 593 215 1069 454 1546 364 724 861 1295 1526 1752 491 337 1100 594
1679 707 455 90 954 113 1386 66 792 -86 1536 -367 2175 -821 649 -462 1194
-1118 1517 -1829 209 -459 323 -876 394 -1431 l5 -41 107 -6 c59 -4 123 -9
142 -13 26 -4 31 -3 20 5 -12 9 -10 11 13 11 33 0 32 -11 7 187 -209 1631
-1232 3055 -2715 3778 -533 260 -1122 424 -1700 475 -167 15 -626 21 -765 9z"/>
<path d="M5035 9915 c-593 -48 -1144 -204 -1680 -474 -310 -157 -569 -325
-810 -525 -598 -497 -1022 -1059 -1314 -1743 -173 -407 -265 -760 -336 -1290
l-6 -42 193 3 c106 1 204 0 218 -4 14 -4 66 -4 115 0 57 5 92 4 96 -3 4 -5 12
-7 18 -3 22 14 107 14 160 0 29 -7 58 -11 64 -7 6 4 86 6 177 4 l167 -2 17
113 c67 435 252 906 505 1288 131 197 244 335 425 516 283 283 531 462 881
634 356 176 680 273 1083 327 158 21 608 24 757 5 551 -70 1029 -244 1465
-534 201 -133 321 -231 497 -402 270 -262 482 -550 644 -876 157 -315 242
-569 304 -905 14 -77 27 -146 30 -153 3 -9 46 -12 177 -11 95 0 182 -3 192 -7
11 -4 17 -4 14 2 -4 5 6 10 20 11 15 0 49 4 75 6 26 3 62 1 79 -4 18 -5 34 -5
37 0 4 5 48 5 99 1 52 -5 106 -5 120 -1 15 4 109 6 210 5 l183 -2 -6 42 c-70
528 -163 882 -336 1289 -235 548 -540 998 -974 1433 -364 364 -739 634 -1200
860 -736 360 -1545 514 -2360 449z m308 -296 c29 -16 28 -14 21 -33 -5 -13
-14 -15 -40 -10 l-34 6 -1 -83 c0 -46 -2 -127 -3 -179 -3 -120 0 -133 26 -119
10 6 53 11 94 13 83 3 94 10 94 64 0 25 4 32 20 32 20 0 38 -39 26 -59 -4 -5
-2 -12 4 -16 16 -10 12 -40 -7 -57 -17 -15 -61 -20 -168 -19 -22 1 -68 1 -102
1 -66 -1 -89 14 -57 37 17 13 19 29 19 196 l0 182 -33 3 c-25 3 -32 8 -30 20
2 13 18 18 68 23 36 3 69 6 73 7 5 1 18 -3 30 -9z m637 -125 c11 -54 25 -107
31 -118 6 -10 12 -36 14 -57 3 -22 9 -48 15 -58 5 -11 10 -30 10 -42 0 -28 27
-59 51 -59 24 0 32 -15 15 -29 -36 -30 -165 -7 -166 30 0 12 38 17 49 6 15
-15 14 -4 -8 77 -10 38 -24 72 -32 76 -8 4 -38 10 -66 12 -52 5 -53 4 -75 -31
-19 -31 -58 -103 -58 -106 0 -1 10 -1 22 -1 13 1 24 -6 26 -15 2 -12 -7 -18
-34 -22 -20 -4 -42 -3 -48 0 -6 4 -22 7 -36 7 -20 1 -25 6 -25 26 0 20 5 25
24 26 32 2 61 39 112 141 23 46 45 81 49 78 4 -3 8 1 7 8 -1 37 6 57 28 81 14
15 25 33 25 41 0 20 31 48 41 38 5 -5 18 -54 29 -109z m-1171 67 c24 -15 5
-41 -30 -41 -30 0 -31 -1 -25 -33 3 -18 9 -68 12 -110 3 -43 9 -89 14 -102 5
-12 6 -32 3 -43 -3 -11 0 -36 6 -55 l12 -34 38 13 c32 11 66 17 123 23 18 2
38 36 38 67 0 19 5 34 10 34 6 0 13 1 16 3 3 1 14 -22 24 -52 14 -43 16 -58 7
-73 -12 -18 -43 -32 -63 -27 -5 1 -27 -2 -49 -9 -55 -15 -235 -27 -235 -15 0
5 5 14 11 20 17 17 18 79 2 173 -13 83 -21 142 -22 188 -1 18 -7 22 -36 22
-40 0 -50 27 -12 34 12 3 40 9 62 14 53 13 77 14 94 3z m1678 -59 c21 -11 48
-22 60 -26 33 -11 79 -58 97 -100 35 -83 13 -221 -44 -280 -37 -37 -153 -72
-170 -51 -6 8 -17 12 -24 9 -21 -8 -170 35 -183 53 -17 23 0 33 42 26 21 -3
36 0 41 8 16 25 66 193 74 249 4 31 10 66 14 78 6 18 3 22 -13 22 -32 0 -50
11 -44 26 8 20 99 12 150 -14z m-2122 -52 c3 -5 15 -10 27 -10 30 0 108 -87
108 -121 0 -15 4 -31 10 -34 5 -3 8 -39 6 -82 -4 -89 -34 -159 -81 -190 -32
-21 -155 -42 -155 -26 0 4 -14 14 -30 22 -44 19 -86 56 -123 110 -27 39 -32
55 -33 111 -1 36 2 81 7 100 14 51 70 110 111 117 18 3 35 7 37 9 9 9 110 3
116 -6z m2734 -142 c67 -40 111 -79 127 -113 9 -19 13 -38 10 -44 -4 -5 -2
-12 3 -16 15 -8 4 -96 -14 -115 -8 -9 -15 -23 -15 -31 0 -23 -97 -119 -137
-136 -53 -22 -103 -24 -111 -5 -5 13 -6 13 -12 -2 -5 -15 -12 -12 -54 21 -37
30 -52 51 -66 93 -34 97 -23 199 28 254 17 19 32 39 32 44 0 18 78 61 116 65
22 2 43 4 48 5 5 1 25 -8 45 -20z m-3301 -115 c48 -30 57 -113 16 -140 l-27
-17 35 -31 c20 -16 59 -39 88 -50 29 -11 55 -26 57 -32 3 -8 18 -11 40 -9 24
3 36 0 40 -10 5 -15 -10 -38 -25 -40 -4 0 -25 -8 -46 -17 -40 -18 -66 -17 -66
2 0 5 5 13 10 16 19 12 10 22 -45 50 -30 15 -55 30 -55 34 0 4 -14 15 -31 25
-25 15 -35 16 -59 6 -22 -9 -27 -16 -20 -28 18 -38 45 -107 43 -114 -4 -11 31
-28 61 -30 28 -3 38 -38 11 -38 -8 0 -15 -4 -15 -8 0 -10 -60 -32 -88 -32 -28
0 -30 36 -2 45 11 3 20 10 20 14 0 4 -9 16 -20 26 -11 10 -20 24 -20 32 0 7
-4 21 -9 31 -5 9 -17 35 -27 57 -9 22 -20 42 -24 45 -4 3 -15 31 -25 63 -10
32 -21 60 -26 62 -4 3 -19 1 -32 -4 -19 -7 -28 -6 -37 5 -10 12 -3 18 46 40
33 15 67 33 76 42 37 32 109 34 156 5z m3737 -143 c22 -15 50 -30 62 -34 33
-10 81 -71 89 -111 8 -44 -13 -79 -61 -102 -27 -13 -40 -14 -59 -5 -23 10 -24
9 -29 -36 -2 -26 0 -70 5 -98 5 -31 5 -61 -1 -76 -7 -20 -6 -25 4 -24 8 0 14
-3 14 -8 -1 -5 5 -12 11 -16 7 -4 9 -13 6 -19 -9 -14 -46 -15 -46 -1 0 6 -5
10 -10 10 -21 0 -70 44 -70 63 0 15 5 18 23 13 23 -5 23 -4 17 47 -4 28 -4 61
0 72 12 31 -1 87 -24 106 -19 16 -21 15 -49 -20 -16 -20 -33 -46 -38 -58 -5
-13 -13 -23 -17 -23 -13 0 -9 -30 7 -59 7 -13 9 -27 4 -32 -14 -14 -110 37
-118 62 -9 29 7 44 33 30 28 -15 29 -15 36 15 4 15 27 53 52 85 24 31 44 64
44 72 0 9 3 17 8 19 10 4 72 84 72 93 0 4 -10 15 -22 24 -14 12 -19 24 -15 35
7 19 9 18 72 -24z m-4231 -149 c7 -6 19 -32 25 -58 11 -42 10 -48 -11 -71 -13
-13 -18 -26 -13 -28 6 -2 26 -14 45 -26 19 -12 44 -22 55 -24 49 -6 81 -19 98
-38 10 -12 16 -15 12 -8 -3 6 -3 12 2 13 4 0 18 2 30 5 31 5 35 -20 7 -45 -13
-11 -28 -21 -33 -21 -5 0 -14 -7 -21 -15 -7 -8 -20 -15 -30 -15 -20 0 -34 26
-20 35 18 11 10 23 -17 29 -16 4 -55 21 -89 38 -56 29 -63 31 -92 19 -30 -13
-43 -31 -22 -31 6 0 10 -6 10 -12 0 -7 13 -33 29 -57 17 -25 28 -47 26 -51 -2
-3 11 -6 28 -7 62 -2 67 -3 67 -18 0 -8 -7 -15 -15 -15 -8 0 -15 -4 -15 -9 0
-14 -64 -51 -89 -51 -28 0 -29 36 -1 45 27 9 25 17 -10 43 -16 13 -29 26 -28
30 3 10 -20 51 -52 92 -15 19 -40 58 -55 85 -34 63 -44 73 -53 59 -12 -18 -40
-23 -52 -10 -8 11 1 21 39 45 27 18 55 39 63 48 24 29 89 50 130 43 21 -4 44
-13 52 -19z m4917 -343 c6 -13 23 -35 37 -51 20 -21 23 -30 14 -39 -10 -10
-17 -10 -33 0 -12 8 -22 12 -23 10 -1 -2 -25 -50 -53 -108 -81 -165 -85 -183
-30 -140 14 11 32 20 40 20 9 0 19 5 22 10 3 6 17 10 31 10 13 0 24 4 24 9 0
5 13 12 30 16 36 8 80 41 80 61 0 19 14 18 31 -2 11 -13 9 -23 -12 -61 -13
-25 -30 -47 -36 -50 -7 -3 -11 -9 -8 -13 3 -5 1 -11 -4 -15 -6 -3 -25 -32 -43
-65 -18 -33 -36 -60 -40 -60 -4 0 -12 -8 -17 -19 -14 -25 14 -23 54 4 17 12
44 27 60 35 17 8 38 20 47 28 9 8 21 11 27 8 5 -4 12 -2 16 3 3 6 11 9 18 7 7
-1 9 -1 5 1 -14 8 -9 21 10 27 13 4 17 15 16 41 -2 40 18 48 38 15 7 -11 20
-20 29 -20 27 0 52 -46 39 -70 -11 -20 -11 -20 -38 -1 -27 19 -27 19 -45 -5
-12 -16 -28 -24 -47 -24 -19 0 -29 -5 -28 -12 2 -7 -5 -12 -14 -12 -10 1 -18
-4 -18 -12 0 -8 -6 -14 -14 -14 -7 0 -19 -6 -25 -13 -6 -8 -29 -19 -51 -26
-22 -6 -40 -16 -40 -21 0 -6 -8 -10 -17 -10 -10 -1 -35 -7 -57 -15 -38 -13
-66 -11 -66 6 0 9 43 77 63 99 8 8 23 33 33 55 10 21 27 48 38 59 22 22 5 36
-19 16 -8 -7 -22 -10 -30 -6 -8 3 -15 1 -15 -4 0 -5 -20 -21 -45 -36 -33 -19
-53 -24 -73 -20 -20 5 -23 4 -12 -4 12 -8 13 -10 1 -10 -8 0 -22 -7 -32 -16
-10 -9 -23 -13 -28 -9 -16 9 -13 51 4 65 8 7 15 18 15 25 0 7 9 24 20 38 11
14 20 32 20 41 0 9 4 16 9 16 5 0 13 10 16 23 4 12 17 38 29 57 48 79 61 142
35 176 -12 15 -1 24 27 24 14 0 28 -9 35 -22z m-5467 -33 c21 -14 53 -32 72
-40 19 -8 41 -21 50 -29 8 -8 21 -13 30 -9 8 3 25 -3 37 -13 28 -24 63 -44 78
-44 6 0 17 -7 25 -15 20 -19 48 -19 78 1 18 11 26 12 31 4 21 -33 -90 -149
-116 -123 -15 15 8 56 24 47 7 -4 9 -4 6 0 -4 4 -36 22 -73 41 -57 29 -71 32
-91 23 -14 -6 -25 -16 -25 -22 0 -7 -13 -20 -30 -29 -29 -18 -30 -19 -16 -52
8 -18 12 -35 10 -37 -2 -3 7 -27 21 -54 13 -27 24 -41 24 -32 1 21 17 32 37
24 12 -5 11 -11 -8 -38 -29 -41 -69 -77 -86 -78 -20 0 -26 29 -11 57 12 22 10
34 -14 101 -15 43 -29 82 -30 87 -2 6 -9 20 -15 33 -7 12 -10 26 -7 31 3 5 2
11 -2 13 -13 5 -56 89 -49 95 3 3 -1 15 -9 27 -39 55 -3 73 59 31z m-319 -335
c39 -24 64 -70 37 -70 -9 1 -28 7 -42 15 -37 21 -57 18 -92 -15 -37 -36 -43
-56 -26 -88 26 -50 92 -57 193 -20 41 15 132 17 172 4 13 -4 26 -18 29 -32 8
-30 -4 -96 -16 -89 -4 3 -6 -3 -3 -13 5 -20 -44 -75 -61 -69 -6 3 -21 1 -34
-4 -19 -7 -21 -12 -12 -29 13 -24 6 -40 -17 -40 -19 0 -83 66 -83 85 0 9 21
14 69 17 81 4 107 21 113 75 5 44 -24 83 -62 84 -14 0 -59 -9 -100 -21 -93
-26 -84 -26 -148 -11 -65 16 -96 51 -89 99 3 18 13 39 21 48 9 8 16 19 16 24
0 4 13 13 29 20 16 6 31 20 34 31 7 24 31 24 72 -1z m6324 -218 c7 -12 9 -28
5 -34 -4 -6 -3 -8 2 -5 14 8 26 -3 47 -41 10 -18 28 -43 40 -56 48 -51 56 -67
44 -87 -7 -11 -17 -19 -24 -19 -7 0 -13 -5 -13 -10 0 -10 -58 -50 -73 -50 -4
0 -10 7 -14 16 -4 11 6 27 31 49 35 30 36 33 24 61 -6 16 -25 45 -40 65 -15
20 -28 41 -28 47 0 29 -66 10 -100 -29 -3 -3 -13 -8 -22 -12 -22 -8 -23 -26
-3 -33 8 -4 15 -12 15 -19 0 -21 25 -36 38 -23 13 13 42 4 42 -15 0 -7 -12
-20 -28 -29 -15 -9 -44 -32 -64 -52 -35 -34 -58 -45 -58 -28 0 4 -3 17 -6 29
-5 17 1 25 27 38 28 15 30 19 16 27 -9 5 -17 15 -17 22 0 8 -6 19 -13 25 -11
8 -18 6 -32 -9 -10 -11 -23 -20 -28 -20 -6 0 -24 -10 -41 -23 -17 -13 -39 -27
-50 -30 -18 -7 -18 -8 0 -30 11 -12 25 -26 32 -30 6 -4 12 -13 12 -20 0 -7 13
-27 28 -45 l28 -34 38 22 c27 16 40 20 48 12 17 -17 -14 -56 -67 -85 -53 -30
-79 -26 -72 10 2 13 -1 27 -7 31 -13 8 -76 102 -76 113 0 4 -9 11 -21 14 -11
4 -18 13 -15 20 2 7 -1 21 -8 31 -14 19 -10 54 7 54 5 0 16 -8 22 -17 13 -17
14 -17 32 0 11 9 27 17 35 17 9 0 18 6 21 13 2 7 22 21 42 32 21 11 49 30 62
43 13 13 27 21 31 18 5 -3 28 12 51 33 35 32 41 42 36 64 -10 40 3 52 29 25
13 -13 28 -33 35 -46z m-6625 -138 c3 -8 11 -14 18 -14 20 -1 70 -49 63 -60
-9 -15 -26 -12 -69 10 l-39 19 -22 -23 c-12 -13 -33 -41 -45 -62 -13 -22 -27
-41 -31 -44 -4 -3 -9 -14 -11 -25 -2 -14 3 -21 19 -23 12 -2 27 -10 33 -18 7
-8 19 -14 26 -14 8 0 14 -7 14 -15 0 -25 15 -17 43 21 l26 37 -22 18 c-17 14
-19 20 -10 30 10 10 23 8 63 -11 28 -13 55 -29 61 -36 6 -7 17 -10 25 -7 20 8
29 -24 11 -42 -21 -20 -40 -19 -62 5 -17 19 -18 19 -41 -16 -24 -34 -24 -54
-2 -54 6 0 31 -16 54 -36 24 -19 44 -32 44 -29 0 4 8 -1 17 -11 17 -16 18 -15
33 18 8 19 28 51 43 71 35 46 34 56 -5 89 -25 21 -30 30 -21 39 16 16 53 5 99
-32 44 -35 51 -62 17 -67 -13 -2 -23 -10 -23 -18 0 -8 -18 -39 -40 -69 -22
-30 -40 -63 -40 -75 0 -11 -6 -20 -13 -20 -7 0 -20 -9 -30 -20 -9 -11 -23 -20
-31 -20 -24 0 -29 20 -10 35 18 12 17 14 -14 32 -17 10 -32 24 -32 31 0 7 -5
10 -10 7 -6 -4 -27 7 -48 23 -20 16 -48 35 -62 42 -14 7 -29 19 -33 26 -4 8
-15 14 -22 14 -8 0 -15 4 -15 8 0 4 -14 13 -32 20 -26 10 -36 9 -55 -3 -60
-40 -53 -3 23 111 30 44 54 84 54 87 0 4 11 25 26 46 26 40 67 53 78 25z
m6892 -266 c3 -12 13 -28 20 -36 8 -7 12 -18 8 -23 -3 -5 3 -21 14 -37 57 -82
53 -189 -9 -223 -28 -15 -88 -3 -118 24 -20 19 -22 19 -14 3 23 -42 -19 -117
-79 -144 -28 -11 -77 -7 -110 10 -18 9 -73 90 -97 143 -7 17 -17 37 -21 46 -8
16 5 49 19 49 4 0 12 -9 17 -20 9 -19 9 -19 54 2 25 11 56 26 70 32 14 6 44
23 66 39 23 15 45 27 49 27 17 0 92 60 92 74 0 8 -4 13 -9 10 -11 -7 -10 3 2
27 14 26 37 24 46 -3z m-6963 -298 c68 -39 86 -67 99 -147 9 -58 8 -68 -6 -78
-9 -7 -16 -22 -16 -34 0 -12 -4 -20 -9 -17 -5 3 -8 0 -8 -7 2 -20 -24 -98 -40
-124 -30 -46 -62 -22 -39 30 13 28 0 44 -57 71 -30 15 -57 26 -61 26 -4 0 -24
11 -44 25 -20 14 -46 25 -57 25 -11 1 -38 9 -60 20 -48 23 -55 24 -55 7 0 -7
-6 -22 -14 -33 -11 -14 -18 -16 -26 -8 -17 17 5 87 46 146 19 28 34 55 34 62
1 14 71 59 108 68 57 15 151 0 205 -32z"/>
<path d="M5925 9520 c3 -5 -4 -25 -17 -42 -13 -18 -29 -48 -35 -66 l-11 -32
52 2 53 2 -14 45 c-7 25 -11 51 -9 58 7 17 -3 43 -16 43 -5 0 -6 -4 -3 -10z"/>
<path d="M6434 9423 c-3 -26 -12 -61 -19 -78 -6 -16 -15 -47 -19 -69 -4 -21
-12 -50 -18 -65 -6 -14 -12 -35 -13 -46 -1 -11 -4 -26 -6 -34 -3 -10 10 -18
38 -25 23 -6 45 -14 49 -18 23 -24 134 24 134 59 0 7 7 16 15 19 8 4 15 13 15
21 0 8 5 11 12 7 6 -4 8 -3 5 3 -3 5 -7 29 -8 54 -1 24 -8 70 -17 102 -15 60
-33 77 -101 97 -14 4 -34 11 -43 15 -14 5 -18 -2 -24 -42z"/>
<path d="M4235 9405 c-35 -8 -53 -17 -60 -33 -5 -12 -13 -22 -17 -22 -4 0 -5
-7 -2 -15 4 -8 1 -21 -5 -29 -6 -7 -10 -24 -10 -37 1 -13 0 -28 -2 -34 -11
-31 74 -150 139 -193 31 -20 90 -24 121 -7 72 38 99 150 56 235 -49 98 -59
117 -71 129 -17 18 -84 21 -149 6z"/>
<path d="M7010 9279 c0 -5 -5 -9 -10 -9 -12 0 -23 -8 -75 -55 -39 -35 -63
-107 -59 -175 6 -90 26 -129 83 -159 24 -14 101 -6 101 10 0 5 5 9 12 9 27 0
75 50 88 92 7 23 16 48 19 53 3 6 11 33 16 61 11 52 -3 114 -25 114 -5 0 -28
13 -52 29 -44 29 -98 45 -98 30z"/>
<path d="M3726 9172 c-3 -4 -27 -14 -54 -22 -37 -10 -49 -17 -47 -29 4 -21 45
-100 55 -106 4 -2 29 7 56 20 49 24 50 25 52 74 2 41 -2 52 -17 61 -24 12 -38
13 -45 2z"/>
<path d="M7534 8992 c-7 -4 -24 -29 -39 -55 -25 -47 -26 -49 -8 -63 32 -25 93
-55 93 -45 0 5 16 15 35 22 30 11 35 17 35 46 0 22 -5 33 -15 33 -8 0 -19 9
-25 20 -6 11 -17 20 -26 20 -8 0 -17 7 -20 15 -7 17 -13 18 -30 7z"/>
<path d="M3220 8880 c0 -5 -8 -10 -19 -10 -10 0 -24 -7 -31 -15 -7 -8 -19 -15
-27 -15 -26 0 -25 -29 4 -67 36 -49 44 -54 68 -46 26 8 85 59 77 67 -3 4 -5
22 -4 41 2 25 -3 37 -17 44 -25 14 -51 14 -51 1z"/>
<path d="M2736 8474 c-3 -8 -2 -12 4 -9 6 3 10 2 10 -4 0 -6 12 -36 26 -68
l25 -58 25 30 c13 17 29 36 35 42 7 10 -1 17 -31 29 -23 9 -37 21 -33 27 3 5
1 7 -4 4 -6 -4 -16 0 -23 8 -16 19 -26 19 -34 -1z"/>
<path d="M8957 7441 c-58 -33 -66 -40 -52 -51 8 -7 13 -15 11 -17 -5 -5 17
-34 48 -64 23 -22 69 -25 84 -6 19 23 24 64 11 89 -7 12 -12 26 -11 31 1 4 -2
7 -7 7 -5 0 -11 11 -13 24 l-3 24 -68 -37z"/>
<path d="M8794 7349 c-27 -18 -61 -36 -76 -41 -16 -6 -28 -14 -28 -18 0 -22
51 -93 75 -106 95 -49 162 35 114 146 -12 27 -25 50 -28 50 -4 0 -29 -14 -57
-31z"/>
<path d="M1870 7259 c-43 -6 -59 -13 -77 -36 -13 -15 -23 -34 -23 -42 0 -8 -8
-23 -17 -34 -17 -18 -17 -19 2 -33 10 -8 25 -14 32 -14 8 0 43 -13 78 -30 35
-16 70 -30 76 -30 7 0 27 -11 46 -26 18 -14 33 -22 33 -18 0 3 11 -1 24 -10
24 -15 25 -15 55 48 17 34 31 68 31 74 0 18 -41 91 -55 100 -8 4 -21 21 -29
37 -9 17 -16 24 -16 18 0 -9 -11 -11 -32 -7 -65 11 -74 11 -128 3z"/>
<path d="M5185 8664 c-195 -14 -487 -65 -674 -119 -743 -214 -1377 -670 -1813
-1305 -271 -395 -467 -896 -534 -1363 l-6 -48 331 5 c182 3 331 3 331 1 0 -3
-29 -68 -65 -144 -36 -77 -65 -144 -65 -149 0 -5 -6 -15 -14 -21 -7 -6 -21
-36 -31 -66 l-17 -55 56 -127 c30 -71 71 -159 91 -198 47 -94 46 -105 -7 -105
-176 -2 -324 -2 -451 0 -82 1 -151 0 -154 -3 -20 -21 85 -464 157 -664 247
-681 684 -1237 1290 -1638 541 -358 1224 -553 1865 -532 514 17 931 121 1380
342 478 236 892 587 1207 1027 230 321 409 711 507 1098 37 148 77 357 69 365
-5 6 -138 8 -343 6 -320 -3 -297 -6 -289 26 4 15 26 66 50 113 23 47 52 109
63 138 12 29 32 74 45 101 l25 48 -21 59 c-12 33 -24 61 -29 64 -4 3 -17 29
-28 58 -12 29 -31 72 -43 95 -24 47 -68 148 -68 159 0 4 144 4 320 2 269 -4
320 -3 320 9 0 7 -9 65 -20 128 -216 1210 -1093 2198 -2270 2557 -300 92 -549
131 -875 136 -126 2 -257 2 -290 0z m-567 -2846 c3 -16 -8 -18 -121 -18 -171
0 -185 -3 -193 -49 -9 -52 -31 -161 -39 -193 l-7 -28 80 0 c58 0 83 -4 92 -15
16 -19 8 -22 -94 -29 -44 -3 -82 -8 -84 -11 -3 -3 -20 -75 -38 -161 -32 -157
-42 -182 -64 -169 -19 12 -8 84 53 350 70 307 68 291 36 287 -26 -2 -58 22
-46 35 15 15 93 21 252 19 153 -1 170 -3 173 -18z m470 -56 c2 -17 -6 -86 -17
-153 -12 -67 -19 -124 -17 -126 2 -2 13 9 25 25 11 16 36 37 55 46 31 15 39
15 70 2 19 -8 39 -23 45 -34 16 -30 13 -141 -5 -203 -34 -115 -74 -159 -142
-159 -33 0 -82 34 -82 56 0 20 17 17 40 -6 43 -43 93 -12 128 81 41 112 37
239 -8 239 -57 0 -138 -136 -170 -285 -10 -50 -19 -91 -19 -93 -1 -1 -10 2
-21 8 -16 8 -19 17 -14 38 l7 27 -29 -26 c-16 -15 -39 -30 -50 -33 -28 -8 -72
12 -79 36 -8 24 -22 23 -35 -2 -15 -28 -65 -52 -95 -44 -14 3 -37 20 -51 37
-24 29 -26 37 -22 111 6 141 92 286 169 286 40 0 102 -59 97 -92 -4 -31 -32
-29 -36 2 -5 35 -20 50 -51 50 -33 0 -61 -28 -94 -95 -57 -114 -52 -285 7
-262 27 11 75 88 98 159 22 69 40 90 59 71 7 -7 5 -31 -5 -71 -31 -117 -15
-168 42 -138 16 8 41 31 56 50 24 32 32 64 67 274 22 130 42 243 45 250 7 24
29 6 32 -26z m668 -26 c8 -21 -15 -58 -34 -54 -9 2 -18 11 -20 21 -7 36 42 65
54 33z m514 -9 c0 -40 -41 -64 -54 -31 -9 22 11 54 34 54 14 0 20 -7 20 -23z
m-686 -140 c16 -11 12 -15 -33 -36 -86 -38 -142 -127 -167 -264 -9 -45 -17
-92 -20 -104 -3 -15 -12 -23 -24 -23 -27 0 -26 18 12 232 26 147 34 178 47
176 10 -2 18 -18 22 -43 3 -22 7 -35 8 -29 2 18 64 76 96 90 38 17 38 17 59 1z
m494 -28 c1 -8 -26 -51 -60 -94 -119 -147 -167 -210 -168 -217 0 -5 8 -8 18
-8 10 0 42 -9 72 -19 39 -14 61 -17 78 -10 30 12 40 4 26 -19 -18 -28 -60 -38
-97 -23 -55 23 -86 24 -133 6 -30 -11 -49 -14 -57 -7 -7 5 -21 6 -32 1 -36
-14 -66 -9 -90 16 -31 31 -33 83 -5 214 30 140 39 171 54 171 24 0 24 -24 1
-141 -22 -107 -30 -171 -26 -211 1 -13 10 -18 32 -18 26 0 45 14 113 83 70 71
196 225 196 239 0 2 -27 2 -60 0 -44 -3 -66 0 -85 12 -43 28 -29 36 53 30 42
-3 91 -1 107 5 39 12 59 9 63 -10z m482 1 c24 -24 27 -70 4 -70 -8 0 -20 14
-25 30 -12 34 -34 38 -80 14 -94 -48 -121 -318 -34 -340 54 -13 122 93 133
208 5 61 11 68 36 43 33 -34 -6 -185 -63 -246 -32 -33 -44 -39 -80 -39 -49 0
-96 21 -111 51 -11 20 -12 19 -45 -10 -62 -54 -143 -51 -166 6 -20 51 38 363
67 363 26 0 26 -27 0 -150 -14 -66 -26 -143 -26 -170 0 -47 1 -50 26 -50 38 0
88 34 106 72 9 18 21 64 26 102 12 80 51 149 101 183 43 29 103 31 131 3z
m-1984 -1252 c-6 -60 -6 -61 13 -44 24 22 57 14 65 -16 8 -31 -12 -104 -34
-123 -21 -19 -51 -17 -58 5 -5 13 -3 13 13 0 15 -13 19 -12 35 8 22 27 36 100
22 114 -6 6 -17 8 -25 5 -19 -7 -57 -87 -57 -120 0 -15 -4 -27 -10 -27 -5 0
-10 5 -10 11 0 8 -5 7 -16 -2 -13 -10 -19 -10 -36 0 -15 9 -23 10 -31 2 -17
-17 -44 -13 -60 9 -8 12 -21 17 -33 14 -15 -4 -19 -14 -19 -52 0 -54 -25 -102
-54 -102 -31 0 -31 34 0 163 16 67 31 141 35 165 3 23 10 42 15 42 12 0 11
-13 -7 -108 -13 -64 -14 -86 -5 -95 17 -17 42 2 67 51 29 62 60 90 82 76 9 -6
19 -20 20 -30 4 -19 3 -18 -11 0 -19 26 -44 15 -62 -29 -17 -38 -20 -91 -6
-99 12 -8 39 24 52 62 16 47 30 39 22 -13 -5 -36 -3 -45 9 -45 26 0 38 25 54
111 20 116 24 129 31 129 3 0 3 -28 -1 -62z m495 29 c-13 -13 -26 -3 -16 12 3
6 11 8 17 5 6 -4 6 -10 -1 -17z m525 -4 c-10 -10 -19 5 -10 18 6 11 8 11 12 0
2 -7 1 -15 -2 -18z m-736 7 c0 -5 -4 -10 -10 -10 -5 0 -10 5 -10 10 0 6 5 10
10 10 6 0 10 -4 10 -10z m-103 -83 c-32 -30 -57 -86 -57 -129 0 -10 -4 -18
-10 -18 -13 0 -13 14 2 100 7 38 16 70 20 70 4 0 8 -7 8 -15 0 -12 4 -11 20 5
11 11 27 20 36 20 10 0 4 -11 -19 -33z m427 27 c9 -3 16 -12 16 -20 0 -12 -4
-12 -20 -2 -16 10 -23 10 -36 -4 -22 -21 -32 -122 -14 -133 17 -10 46 22 64
70 l15 40 0 -36 c2 -67 -64 -116 -99 -74 -12 14 -15 14 -30 0 -21 -19 -44 -19
-59 -1 -10 11 -10 29 0 78 15 82 34 103 25 28 -4 -30 -10 -65 -13 -77 -4 -18
-1 -23 15 -23 26 0 52 36 52 73 0 18 11 39 29 58 32 32 32 32 55 23z m629 -19
c49 34 74 7 62 -66 -9 -52 -43 -93 -69 -83 -18 7 -18 8 3 16 25 9 51 64 51
109 0 38 -14 35 -52 -12 -21 -26 -30 -52 -39 -114 -10 -73 -22 -106 -33 -94
-5 5 13 118 35 214 8 38 14 52 17 37 3 -21 5 -21 25 -7z m194 9 c9 -25 -15
-65 -47 -77 -33 -13 -41 -46 -15 -67 19 -16 69 3 90 34 12 16 15 17 15 4 0
-42 -97 -77 -128 -46 -24 24 -10 112 25 150 20 22 52 23 60 2z m211 -13 c2
-13 -2 -28 -8 -35 -10 -8 -11 -5 -6 15 7 30 0 40 -20 32 -38 -14 -59 -118 -29
-143 30 -25 85 17 107 84 17 50 60 85 83 66 22 -18 19 -32 -4 -18 -26 16 -48
-2 -61 -52 -10 -39 0 -90 18 -90 18 0 43 38 49 74 3 20 10 36 14 36 16 0 9
-55 -11 -87 -23 -38 -63 -45 -82 -14 -11 19 -12 19 -38 -1 -39 -28 -92 -22
-104 13 -20 57 24 153 68 147 13 -2 22 -11 24 -27z m218 -8 l-7 -38 26 38 c16
22 34 37 46 37 18 0 21 -5 17 -36 l-4 -36 25 31 c37 44 56 41 47 -6 -24 -129
-18 -148 29 -97 17 18 25 22 25 12 0 -23 -36 -50 -62 -46 -20 3 -23 9 -23 43
0 22 4 53 8 70 8 29 8 29 -11 12 -11 -10 -27 -35 -37 -57 -33 -72 -47 -42 -21
43 25 82 -16 49 -60 -48 -15 -33 -29 -54 -32 -46 -7 20 19 161 31 161 5 0 6
-15 3 -37z m-1600 5 c-3 -13 -9 -47 -12 -75 -6 -45 -4 -53 9 -53 17 0 101 80
118 112 8 15 5 18 -20 18 -16 0 -33 5 -36 10 -4 6 15 10 49 10 31 0 56 -2 56
-4 0 -2 -23 -32 -51 -67 l-51 -64 43 -10 c58 -14 41 -21 -56 -20 -77 0 -80 1
-83 24 -5 34 18 141 31 141 5 0 7 -10 3 -22z m514 3 c12 -24 13 -31 1 -31 -5
0 -11 9 -14 21 -5 17 -9 19 -26 10 -27 -15 -39 -39 -43 -87 -3 -33 0 -39 17
-39 13 0 26 13 39 40 27 54 31 31 11 -65 -9 -44 -13 -89 -10 -100 3 -11 2 -20
-4 -20 -16 0 -23 39 -16 85 5 39 4 43 -13 38 -30 -7 -45 21 -39 73 8 74 71
123 97 75z m76 -8 c-3 -16 -9 -49 -12 -75 -6 -39 -4 -48 8 -48 23 0 35 20 49
75 20 79 32 78 24 -2 -4 -44 -3 -73 2 -73 19 0 42 36 54 85 6 28 16 55 22 60
9 10 8 -5 -9 -107 -6 -34 -4 -38 14 -38 12 0 27 9 35 21 l15 21 7 -21 c7 -23
26 -27 56 -11 31 17 24 49 -16 66 -57 24 -38 75 27 73 20 -1 19 -2 -9 -15 -38
-16 -42 -30 -13 -39 11 -4 28 -18 37 -31 31 -49 -25 -102 -81 -76 -15 7 -28 7
-41 0 -13 -8 -24 -7 -37 1 -13 8 -24 9 -39 1 -15 -8 -24 -8 -34 0 -9 8 -20 7
-39 -1 -31 -15 -56 1 -56 36 0 39 23 125 33 125 5 0 7 -12 3 -27z m634 -128
c0 -8 -4 -15 -10 -15 -5 0 -10 7 -10 15 0 8 5 15 10 15 6 0 10 -7 10 -15z"/>
<path d="M4286 4090 c-18 -60 -20 -90 -7 -90 13 0 41 64 41 92 -1 53 -18 52
-34 -2z"/>
<path d="M5962 4260 c-22 -24 -29 -50 -14 -50 17 0 44 39 40 56 -3 16 -6 16
-26 -6z"/>
<path d="M1655 5789 c-236 -3 -590 -7 -786 -8 l-357 -1 -7 -177 c-7 -166 1
-568 11 -585 7 -11 2234 -6 2234 4 0 5 -9 27 -20 49 -12 22 -50 105 -85 185
l-64 144 89 189 c50 103 90 192 90 197 0 11 -514 12 -1105 3z m-504 -196 c0
-10 1 -67 2 -128 l2 -110 28 -3 c20 -3 27 -8 25 -20 -5 -22 -58 -19 -74 3 -11
14 -13 14 -27 0 -21 -21 -67 -12 -91 17 -43 53 8 163 70 152 18 -3 24 0 25 13
4 70 11 93 30 93 5 0 9 -8 10 -17z m574 -114 l0 -124 30 -5 c17 -3 29 -9 28
-13 -2 -4 -3 -12 -3 -18 0 -16 -62 -3 -76 16 -10 13 -13 13 -24 1 -16 -20 -69
-10 -92 16 -20 23 -23 63 -8 103 10 26 64 57 86 48 12 -5 24 27 24 68 0 29 8
41 24 36 7 -2 11 -49 11 -128z m-205 30 c0 -5 5 -7 10 -4 6 3 10 1 10 -5 0 -6
-6 -10 -12 -9 -29 3 -58 -2 -58 -10 0 -5 14 -24 32 -42 25 -28 32 -43 32 -79
1 -42 -1 -45 -26 -48 -18 -2 -37 6 -60 27 -35 32 -24 42 17 15 20 -13 28 -14
40 -4 13 11 13 16 -1 41 -8 16 -18 29 -22 29 -7 0 -42 52 -42 63 0 3 7 13 16
21 17 18 64 22 64 5z m-154 -30 c9 -10 14 -25 11 -33 -7 -17 -69 -46 -99 -46
-29 0 -19 -32 16 -48 25 -13 31 -12 64 12 25 18 39 22 47 15 17 -18 -40 -59
-83 -59 -74 1 -110 69 -71 134 33 54 79 64 115 25z m570 0 c9 -10 14 -25 11
-33 -7 -17 -69 -46 -99 -46 -29 0 -19 -32 16 -48 25 -13 31 -12 64 12 25 18
39 22 47 15 17 -18 -40 -59 -83 -59 -74 1 -110 69 -71 134 33 54 79 64 115 25z"/>
<path d="M1046 5448 c-20 -28 -20 -58 -2 -83 13 -18 15 -18 39 -2 17 11 26 28
29 54 3 21 3 41 1 46 -9 16 -53 6 -67 -15z"/>
<path d="M1615 5440 c-9 -18 -14 -42 -11 -55 14 -57 75 -26 79 40 2 37 0 40
-25 43 -22 3 -30 -3 -43 -28z"/>
<path d="M1284 5449 l-19 -22 30 7 c17 4 37 14 45 22 12 12 11 14 -11 14 -14
0 -34 -10 -45 -21z"/>
<path d="M1854 5449 l-19 -22 30 7 c17 4 37 14 45 22 12 12 11 14 -11 14 -14
0 -34 -10 -45 -21z"/>
<path d="M8050 5793 c0 -2 34 -77 76 -166 42 -89 83 -177 91 -195 15 -31 14
-36 -20 -115 -20 -45 -58 -131 -86 -191 -28 -59 -51 -109 -51 -110 0 -6 2013
-6 2118 0 l122 6 0 378 0 377 -692 8 c-897 10 -1558 13 -1558 8z m783 -188
c52 -22 54 -43 11 -130 -20 -41 -41 -75 -45 -75 -5 0 -13 -9 -19 -21 -11 -20
-9 -20 44 -18 54 3 96 -15 79 -32 -14 -14 -189 -13 -197 0 -3 4 15 30 39 57
68 79 104 145 92 172 -13 28 -57 29 -82 2 -21 -24 -43 -12 -28 15 9 15 47 41
64 44 4 1 23 -6 42 -14z m257 -20 c41 -37 48 -130 15 -201 -20 -43 -41 -58
-81 -57 -95 3 -134 199 -54 267 25 20 35 23 65 16 20 -5 45 -16 55 -25z m205
16 c17 -10 31 -27 33 -40 4 -25 -52 -143 -80 -168 -30 -27 -21 -34 38 -32 53
2 73 -7 74 -33 0 -8 -58 -13 -90 -9 -8 1 -36 2 -62 2 -29 1 -48 6 -48 13 0 6
23 36 50 66 28 30 50 59 50 63 0 5 10 22 21 39 18 24 20 34 10 54 -13 29 -63
33 -83 7 -13 -18 -38 -29 -38 -17 0 16 24 45 48 58 34 19 40 19 77 -3z m258
-33 c27 -31 28 -38 24 -100 -12 -178 -149 -197 -195 -28 -12 45 15 131 48 158
33 27 86 14 123 -30z"/>
<path d="M8979 5559 c-26 -37 -27 -100 -4 -156 27 -63 64 -71 96 -20 17 27 20
43 15 101 -6 75 -16 92 -58 100 -22 4 -32 -1 -49 -25z"/>
<path d="M9447 5578 c-20 -11 -41 -91 -33 -130 17 -90 80 -129 111 -68 17 32
20 135 6 173 -10 26 -57 40 -84 25z"/>
<path d="M945 4973 c-22 -3 -43 -8 -48 -12 -9 -9 25 -271 59 -439 123 -626
389 -1240 761 -1760 253 -353 624 -731 980 -998 443 -332 977 -591 1522 -738
572 -155 1184 -195 1785 -115 772 102 1508 406 2135 882 318 242 647 571 888
892 399 530 688 1180 818 1838 25 126 69 436 63 442 -2 2 -34 6 -73 10 -46 4
-65 3 -56 -3 9 -6 -92 -9 -280 -6 -466 5 -577 6 -690 5 l-105 -1 -23 -132
c-60 -350 -192 -731 -357 -1032 -75 -137 -227 -363 -326 -488 -178 -223 -467
-492 -706 -656 -399 -274 -851 -459 -1322 -541 -373 -65 -806 -63 -1173 5
-886 164 -1670 683 -2169 1435 -105 158 -180 288 -240 419 -136 293 -228 594
-278 913 l-13 77 -96 1 c-53 0 -159 0 -236 -1 -77 -1 -277 -3 -444 -5 -188 -2
-299 0 -290 6 15 9 -5 10 -86 2z m7669 -1390 c3 -7 13 -13 23 -13 21 0 63 -38
63 -58 0 -14 -10 -14 -60 -1 -8 2 -21 10 -28 17 -19 17 -30 15 -37 -8 -3 -11
-10 -20 -15 -20 -5 0 -19 -19 -31 -42 -12 -24 -25 -45 -29 -48 -4 -3 -10 -15
-14 -27 -6 -19 -4 -23 13 -23 11 0 23 -5 26 -11 4 -5 18 -14 32 -20 13 -5 21
-13 18 -19 -3 -5 0 -10 8 -10 8 0 25 16 36 36 20 34 21 37 5 49 -19 13 -13 45
8 45 8 0 37 -16 67 -35 29 -19 61 -35 72 -35 23 0 25 -16 5 -36 -19 -18 -55
-18 -62 1 -4 8 -12 15 -20 15 -8 0 -14 -7 -14 -15 0 -8 -4 -15 -10 -15 -5 0
-14 -9 -20 -20 -9 -16 -7 -22 7 -27 16 -6 86 -54 120 -83 19 -16 27 -12 42 23
8 17 27 51 43 74 15 23 28 45 28 50 0 4 -16 18 -36 31 -28 18 -33 26 -24 37
18 22 48 12 107 -34 36 -29 43 -56 16 -66 -17 -6 -89 -108 -105 -147 -19 -47
-98 -90 -98 -54 0 9 5 16 10 16 6 0 10 7 10 15 0 8 -4 15 -9 15 -4 0 -38 23
-75 50 -37 28 -71 50 -75 50 -5 0 -26 14 -47 31 -60 49 -94 61 -121 43 -34
-22 -46 -18 -39 12 10 37 36 74 53 74 8 0 11 5 8 10 -3 6 7 31 24 56 17 25 31
52 31 60 0 7 4 14 9 14 5 0 13 10 17 23 4 12 11 25 17 29 17 10 46 5 51 -9z
m-6274 -153 c0 -10 -75 -106 -122 -157 -17 -17 -27 -36 -24 -41 3 -6 -4 -19
-17 -29 -13 -10 -32 -31 -42 -48 -10 -16 -27 -37 -37 -45 -19 -16 -24 -51 -13
-87 6 -17 3 -23 -9 -23 -17 0 -56 34 -56 49 0 5 -6 11 -14 14 -17 7 -30 57
-18 69 12 12 40 0 44 -20 3 -12 12 -2 31 29 15 25 36 54 46 64 23 20 16 50
-19 85 -11 11 -20 27 -20 35 0 12 -10 14 -52 10 -115 -12 -131 -18 -107 -42 7
-7 9 -19 5 -29 -6 -15 -10 -13 -37 12 -75 73 -78 147 -4 98 28 -19 88 -14 198
16 48 14 67 15 67 7 0 -8 3 -8 9 1 4 8 10 13 12 12 2 -1 17 4 34 10 16 6 39 9
51 6 13 -4 26 -2 29 4 8 13 65 13 65 0z m6031 -252 c62 -21 107 -64 114 -110
6 -36 4 -44 -14 -59 -11 -9 -21 -22 -21 -28 0 -5 -8 -16 -18 -23 -28 -21 -55
-68 -39 -68 7 0 23 -14 36 -30 27 -37 92 -72 98 -52 6 14 53 16 53 2 0 -6 -6
-13 -14 -16 -8 -3 -13 -11 -10 -18 6 -16 -53 -79 -69 -73 -7 2 -11 15 -9 27 1
13 -6 32 -15 42 -40 43 -78 78 -85 78 -4 0 -26 18 -50 40 -24 22 -46 40 -49
40 -4 0 -24 15 -45 34 -36 32 -41 34 -61 20 -26 -17 -53 -18 -53 -3 0 27 123
162 172 189 40 23 37 23 79 8z m-5806 -77 c25 -29 45 -61 45 -72 0 -29 -38
-24 -52 6 -14 30 -24 32 -38 4 -7 -12 -18 -18 -26 -15 -8 3 -13 2 -10 -3 4 -5
-18 -25 -47 -44 -28 -19 -65 -49 -81 -66 -17 -17 -35 -31 -41 -31 -6 0 -24
-14 -41 -31 -20 -22 -25 -33 -16 -36 8 -3 28 -21 45 -41 54 -61 100 -108 93
-94 -5 7 -1 12 10 12 10 0 26 7 36 16 14 14 21 14 33 4 12 -10 9 -18 -22 -56
-21 -25 -46 -44 -57 -44 -23 0 -56 27 -56 47 0 7 -5 13 -12 13 -13 0 -77 69
-78 83 0 5 -18 30 -40 56 -45 54 -51 76 -18 68 12 -4 28 -1 36 6 8 6 22 16 32
22 32 19 105 76 147 116 23 22 45 39 48 39 10 0 45 40 45 54 0 7 -7 19 -15 26
-12 10 -13 15 -3 21 17 11 31 1 83 -60z m5517 -263 c32 -31 53 -78 34 -78 -7
0 -25 9 -39 20 -32 26 -61 25 -99 -1 -88 -63 -27 -150 95 -135 117 15 167 18
167 10 0 -5 14 -10 32 -11 50 -4 63 -23 52 -80 -5 -28 -14 -47 -21 -46 -7 2
-10 -3 -7 -10 9 -25 -30 -60 -70 -63 -50 -4 -58 -11 -45 -36 14 -25 -6 -42
-33 -27 -23 12 -69 80 -62 91 4 5 24 6 45 3 21 -4 57 -4 78 0 32 5 42 13 55
40 25 52 21 82 -15 104 -23 14 -38 17 -55 11 -12 -5 -31 -9 -41 -9 -10 0 -48
-3 -84 -6 -45 -5 -69 -4 -73 4 -4 6 -16 11 -26 11 -28 0 -68 41 -75 76 -5 25
-1 37 19 59 15 16 26 31 26 34 0 4 16 13 35 20 19 7 35 19 35 27 0 22 46 17
72 -8z m-5227 -50 c26 -24 64 -60 84 -80 20 -21 41 -38 46 -38 6 0 24 -15 41
-33 26 -26 30 -36 23 -54 -4 -13 -13 -23 -19 -23 -5 0 -10 -6 -10 -14 0 -21
-59 -61 -72 -48 -14 14 -1 48 28 75 l24 22 -33 35 c-38 40 -107 100 -117 100
-3 0 -19 -18 -36 -40 -16 -22 -35 -40 -41 -40 -23 0 -13 -25 21 -52 27 -22 35
-24 40 -13 7 19 35 19 42 1 3 -8 1 -21 -5 -28 -6 -7 -25 -29 -42 -48 -16 -19
-35 -46 -40 -59 l-10 -24 -19 21 c-27 28 -25 46 5 66 l25 16 -32 30 -31 30
-64 -65 c-59 -61 -75 -85 -54 -85 5 0 33 -22 62 -50 30 -27 59 -50 65 -50 5 0
23 14 39 30 21 22 31 27 37 18 16 -26 7 -47 -39 -91 -49 -48 -69 -50 -79 -11
-3 13 -9 24 -14 24 -4 0 -29 23 -56 50 -27 28 -56 52 -65 55 -21 7 -52 86 -39
99 7 7 15 3 24 -10 15 -19 16 -18 41 9 14 15 30 27 35 27 6 0 10 5 10 11 0 5
33 43 74 83 94 93 111 118 97 145 -13 24 -14 51 -2 51 5 0 30 -19 56 -42z
m4905 -208 c0 -6 -7 -22 -16 -35 -14 -21 -14 -28 -3 -43 8 -9 20 -21 27 -25 6
-4 12 -15 12 -22 0 -8 4 -15 8 -15 5 0 22 -19 39 -42 32 -44 56 -74 97 -120
21 -23 26 -25 44 -12 11 7 22 10 26 7 3 -3 6 -1 6 5 0 7 7 12 15 12 27 0 16
-36 -22 -70 -53 -48 -101 -80 -119 -80 -23 0 -13 33 14 45 25 11 29 37 7 55
-8 7 -15 18 -15 24 0 7 -10 21 -22 32 -42 38 -121 128 -141 162 l-19 33 -34
-20 c-33 -20 -64 -19 -64 1 0 13 81 87 96 88 6 0 17 7 24 15 14 17 40 20 40 5z
m-4578 -80 c7 -11 20 -20 29 -20 17 0 49 -40 49 -60 0 -5 -7 -10 -16 -10 -21
0 -74 -45 -96 -81 -17 -28 -17 -29 0 -29 10 0 27 6 38 14 11 8 41 17 67 21 29
5 47 12 47 21 0 22 20 26 53 10 50 -25 81 -52 73 -65 -6 -9 -11 -9 -21 -1 -9
8 -14 8 -17 -1 -3 -9 -9 -8 -25 2 -16 9 -25 10 -35 2 -11 -9 -61 -21 -113 -28
-5 -1 -24 -8 -41 -16 -26 -12 -30 -18 -23 -35 4 -12 8 -55 8 -95 0 -41 2 -83
5 -94 2 -11 5 -23 5 -27 1 -5 7 -8 15 -8 8 0 16 -7 20 -15 3 -8 13 -15 21 -15
10 0 15 -7 13 -17 -3 -19 -58 -32 -58 -14 0 5 -18 20 -40 32 -42 24 -51 48
-26 71 15 14 11 113 -6 135 -5 7 -7 16 -4 21 3 5 1 22 -3 38 -8 26 -9 27 -16
9 -9 -22 -66 -98 -77 -103 -12 -5 -10 -32 2 -32 11 0 14 -33 3 -43 -6 -7 -62
24 -95 53 -10 8 -18 23 -18 33 0 16 5 18 38 12 36 -6 39 -4 55 29 9 20 23 36
31 36 7 0 13 8 12 18 0 9 5 16 12 15 6 -2 12 2 12 8 0 13 59 90 77 102 7 4 13
14 13 21 0 8 7 19 15 26 12 10 10 15 -15 37 -38 31 -40 63 -5 63 14 0 30 -9
37 -20z m4338 -102 c0 -6 -8 -20 -17 -30 -10 -12 -13 -22 -8 -26 12 -8 37 -70
38 -94 1 -9 4 -15 8 -12 12 7 71 -107 66 -127 -3 -11 -1 -17 4 -14 13 8 21
-34 17 -95 -4 -70 -31 -93 -115 -93 -66 0 -128 31 -139 71 -3 12 -12 22 -20
22 -8 0 -14 7 -14 15 0 8 -4 15 -9 15 -5 0 -13 9 -16 20 -4 11 -17 32 -29 48
-13 15 -29 44 -37 65 -11 33 -17 37 -46 37 -26 0 -33 4 -33 20 0 12 7 20 18
20 10 0 28 7 40 16 32 22 56 11 48 -22 -5 -18 1 -39 20 -72 45 -78 134 -201
153 -212 17 -8 26 -9 91 -10 37 0 45 15 44 83 -1 57 -18 110 -54 167 -5 8 -17
33 -27 55 -19 43 -49 74 -73 75 -8 0 -22 5 -30 10 -13 8 -11 14 12 35 43 39
108 60 108 33z m-3919 -166 c30 -22 112 -62 128 -62 6 0 11 -4 11 -10 0 -5 7
-10 16 -10 14 0 104 -58 104 -67 0 -2 -24 -14 -53 -27 -30 -13 -73 -37 -97
-55 -24 -17 -48 -31 -55 -31 -6 0 -22 -11 -35 -25 -13 -14 -29 -25 -36 -25
-18 0 -79 -35 -104 -60 -11 -11 -24 -20 -30 -20 -5 0 -10 -3 -10 -7 0 -10 49
-33 71 -33 9 0 22 -7 29 -15 7 -9 20 -13 28 -10 8 3 25 -2 39 -10 26 -18 63
-6 63 20 0 17 35 55 50 55 6 0 10 -18 10 -39 0 -29 -7 -48 -25 -67 -14 -15
-25 -33 -25 -39 0 -24 -34 -28 -49 -6 -7 12 -19 21 -25 21 -7 0 -43 15 -82 34
-38 18 -86 41 -107 51 -57 27 -74 75 -26 75 10 0 19 4 19 10 0 16 41 49 89 72
25 12 48 24 51 28 6 7 86 32 96 29 3 0 19 11 34 26 18 17 35 25 45 21 9 -3 13
-2 10 3 -3 5 -1 12 5 16 20 13 9 24 -55 56 -36 17 -65 36 -65 41 0 13 -49 -25
-50 -38 0 -6 -11 -23 -25 -38 -21 -23 -28 -26 -40 -16 -26 22 -9 90 23 90 13
0 26 36 17 50 -8 13 3 30 19 30 7 0 24 -8 37 -18z m3400 -133 c11 -5 17 -14
14 -19 -3 -4 3 -6 12 -4 25 7 122 -65 129 -96 4 -14 10 -29 14 -35 5 -5 11
-31 15 -57 6 -38 4 -49 -8 -54 -11 -4 -13 -12 -7 -32 8 -29 -10 -103 -31 -128
-20 -24 154 -9 208 19 45 23 72 15 60 -17 -8 -20 -71 -46 -111 -47 -91 -2
-166 4 -172 12 -3 5 -11 6 -17 2 -39 -24 -166 -7 -219 29 -82 56 -88 63 -108
145 -28 105 -20 167 27 228 18 25 37 45 41 46 31 3 67 11 71 15 8 8 62 4 82
-7z m-2796 -230 c0 -54 -3 -100 -6 -101 -4 -2 -2 -14 3 -28 11 -27 13 -153 4
-169 -10 -16 15 -58 43 -71 24 -11 24 -13 8 -25 -33 -24 -157 17 -157 51 0 18
46 19 53 2 3 -7 6 26 6 73 1 97 7 89 -91 119 -36 11 -36 11 -92 -47 -50 -52
-72 -84 -47 -69 14 9 41 -4 41 -20 0 -12 -22 -14 -93 -5 -5 1 -5 5 -2 11 3 5
0 7 -7 5 -21 -8 -52 19 -45 40 5 13 14 15 32 11 21 -5 35 2 76 41 27 25 66 68
85 95 20 26 40 46 45 42 5 -3 9 0 9 7 0 24 53 89 72 89 11 0 17 4 14 9 -14 21
25 59 44 43 3 -2 5 -48 5 -103z m350 -6 c36 -7 51 -26 60 -73 4 -19 18 -58 31
-86 13 -28 24 -60 24 -72 0 -11 5 -24 10 -27 6 -4 10 -14 9 -23 -1 -10 3 -30
10 -45 6 -16 9 -32 7 -35 -2 -4 2 -12 9 -19 10 -10 14 -5 19 23 4 19 10 33 14
30 4 -2 8 17 9 42 1 25 5 53 9 61 4 9 8 23 10 31 1 8 8 32 15 54 12 36 11 39
-11 56 -32 24 -19 38 32 36 72 -4 99 -16 96 -39 -2 -17 -11 -22 -37 -24 -19
-2 -36 -5 -38 -6 -2 -2 -6 -25 -9 -52 -3 -27 -12 -68 -20 -93 -9 -24 -16 -52
-17 -63 -1 -10 -5 -19 -10 -19 -5 0 -7 -6 -4 -14 10 -25 -17 -131 -34 -134
-14 -3 -45 48 -53 88 -10 48 -30 111 -37 116 -5 3 -9 15 -9 28 0 12 -7 31 -15
42 -8 10 -15 29 -15 40 0 12 -6 36 -14 55 l-14 32 -8 -34 c-8 -39 -12 -59 -19
-109 -2 -19 -12 -65 -21 -102 -17 -63 -17 -69 -1 -80 22 -17 25 -40 7 -44 -33
-8 -47 -8 -85 0 -37 8 -54 20 -55 38 0 4 17 10 38 14 34 5 37 9 40 42 1 19 7
41 13 48 6 7 8 17 5 22 -2 4 0 26 5 48 6 21 10 47 10 57 0 9 4 17 8 17 4 0 8
15 9 33 1 19 6 46 12 61 13 35 14 34 -15 34 -31 0 -55 19 -55 43 0 16 5 18 28
13 15 -3 40 -8 57 -11z m1709 -67 c36 -34 41 -49 30 -104 -4 -21 -15 -34 -34
-42 l-29 -12 30 -41 c17 -23 33 -42 37 -42 13 0 82 -60 82 -71 0 -7 16 -15 36
-18 56 -11 42 -38 -26 -52 -30 -6 -61 -9 -67 -6 -18 6 -16 31 3 39 13 5 9 11
-18 34 -18 16 -36 29 -40 29 -5 0 -8 5 -8 10 0 6 -16 28 -35 49 -28 30 -40 37
-64 33 -27 -4 -29 -6 -24 -45 2 -23 7 -53 10 -67 3 -14 7 -31 7 -39 1 -8 9
-18 19 -22 9 -5 25 -13 34 -17 25 -12 28 -32 4 -32 -11 0 -22 -4 -25 -9 -8
-13 -68 -20 -93 -10 -26 10 -21 39 6 39 27 0 32 11 17 35 -8 12 -18 53 -21 91
-4 38 -11 76 -16 85 -4 9 -11 42 -14 74 -7 71 -12 80 -49 80 -44 0 -44 23 1
30 21 4 56 12 78 19 22 8 61 14 87 15 40 1 52 -4 82 -33z m-408 -18 c16 -26
23 -133 9 -146 -13 -13 -45 40 -45 75 l0 35 -96 -5 c-52 -3 -98 -8 -102 -11
-9 -9 -10 -46 -1 -40 4 2 6 -15 5 -38 -3 -56 5 -64 54 -60 33 3 40 7 35 22 -7
21 21 48 35 34 6 -6 13 -39 16 -74 3 -36 10 -70 16 -77 15 -18 1 -32 -30 -30
-23 2 -27 7 -30 38 -3 34 -4 35 -48 37 -41 1 -45 0 -39 -18 4 -11 8 -53 9 -93
4 -93 3 -89 24 -79 9 5 46 10 82 11 35 2 68 5 72 7 5 3 8 25 8 50 0 37 3 44
19 44 25 0 42 -50 38 -107 -3 -55 -20 -73 -45 -50 -10 9 -21 14 -25 11 -3 -4
-41 -8 -83 -10 -42 -2 -82 -8 -87 -13 -7 -7 -15 -7 -24 0 -7 7 -13 9 -13 5 0
-4 -14 1 -31 9 -34 18 -34 42 1 37 21 -3 22 -1 17 32 -3 20 -1 38 4 42 6 3 6
10 1 17 -5 7 -10 32 -11 57 -5 183 -14 230 -45 230 -8 0 -19 7 -26 15 -10 12
-8 16 15 25 37 14 95 13 95 -2 0 -10 2 -10 9 0 4 8 29 14 60 14 29 1 54 4 56
8 7 11 94 10 101 -2z m-661 -12 c28 -4 65 -15 82 -24 106 -54 147 -258 72
-354 -30 -37 -126 -91 -143 -81 -5 3 -52 5 -105 5 -94 -1 -121 7 -121 34 0 9
12 14 34 14 44 0 55 15 58 78 2 29 7 52 12 52 6 0 5 5 -1 11 -6 6 -8 24 -4 42
4 18 6 41 6 52 -1 11 -2 48 -3 83 -2 59 -3 62 -24 57 -29 -7 -50 7 -43 27 7
17 84 19 180 4z"/>
<path d="M2250 3391 c0 -6 -17 -11 -37 -11 -39 0 -103 -19 -103 -31 0 -4 14
-21 32 -38 l32 -31 23 27 c12 16 22 31 23 35 0 4 9 9 19 13 22 7 35 32 21 40
-6 4 -10 1 -10 -4z"/>
<path d="M8335 3140 c-17 -4 -42 -14 -56 -23 -24 -16 -74 -76 -67 -81 41 -26
106 -81 103 -87 -3 -3 7 -9 22 -12 53 -10 115 102 88 160 -5 13 -14 23 -19 23
-5 0 -17 6 -25 13 -10 9 -27 11 -46 7z"/>
<path d="M6891 2055 c-56 -20 -67 -44 -64 -138 1 -45 8 -93 14 -107 34 -73 44
-88 74 -108 86 -59 179 -44 210 33 5 11 7 24 6 29 -1 5 3 22 8 37 6 19 6 29 0
29 -5 0 -8 13 -7 28 1 15 -9 54 -21 86 -20 48 -32 63 -78 92 -56 36 -85 40
-142 19z"/>
<path d="M4153 1894 c4 -4 -14 -29 -38 -56 -25 -28 -45 -54 -45 -59 0 -8 12
-12 73 -24 14 -2 17 4 17 33 0 21 3 54 6 75 5 27 3 37 -6 37 -7 0 -10 -3 -7
-6z"/>
<path d="M6127 1782 c-38 -5 -41 -19 -22 -86 16 -54 17 -56 49 -52 59 8 81 24
95 72 10 32 10 49 3 56 -11 11 -78 17 -125 10z"/>
<path d="M5129 1708 c0 -13 -2 -77 -5 -143 -3 -66 -6 -137 -7 -159 -2 -38 -1
-38 38 -43 99 -10 104 -9 141 31 19 20 34 46 34 57 0 10 5 19 11 19 20 0 3
111 -26 168 -32 64 -53 78 -127 86 -55 6 -58 5 -59 -16z"/>
<path d="M665 4960 l-140 -5 3 -55 c5 -91 41 -335 73 -490 242 -1172 904
-2211 1866 -2934 270 -202 479 -330 798 -486 1345 -659 2987 -650 4319 24 508
257 880 528 1286 935 257 257 416 450 601 726 449 672 713 1404 804 2227 l6
57 -138 3 c-76 2 -146 1 -155 -1 -12 -2 -19 -16 -22 -45 -49 -383 -103 -633
-203 -941 -381 -1174 -1243 -2162 -2361 -2706 -412 -201 -900 -349 -1362 -414
-822 -115 -1670 -4 -2425 317 -162 69 -457 219 -595 303 -911 552 -1621 1432
-1959 2429 -113 330 -177 616 -226 1003 -4 28 -12 53 -18 55 -7 2 -75 1 -152
-2z"/>
</g>
</svg>
